<mxfile host="www.draw.io" modified="2020-01-10T11:04:46.764Z" agent="Mozilla/5.0 (Macintosh; Intel Mac OS X 10_13_6) AppleWebKit/537.36 (KHTML, like Gecko) Chrome/78.0.3904.108 Safari/537.36" etag="CZ-3s1pmjT_TWqzRNpMf" version="12.5.1" type="github">
  <diagram id="-XfDi81jAL4k_Cqw0rN2" name="Page-1">
    <mxGraphModel dx="1113" dy="733" grid="1" gridSize="10" guides="1" tooltips="1" connect="1" arrows="1" fold="1" page="1" pageScale="1" pageWidth="1654" pageHeight="2336" math="0" shadow="0">
      <root>
        <mxCell id="0"/>
        <mxCell id="1" parent="0"/>
        <mxCell id="5vce7p3ugAq2h6Zdt77l-1" value="go-superviosr 流程图" style="text;html=1;align=center;verticalAlign=middle;resizable=0;points=[];autosize=1;" parent="1" vertex="1">
          <mxGeometry x="210" y="160" width="130" height="20" as="geometry"/>
        </mxCell>
        <mxCell id="5vce7p3ugAq2h6Zdt77l-4" value="" style="edgeStyle=orthogonalEdgeStyle;rounded=0;orthogonalLoop=1;jettySize=auto;html=1;" parent="1" source="5vce7p3ugAq2h6Zdt77l-2" target="5vce7p3ugAq2h6Zdt77l-3" edge="1">
          <mxGeometry relative="1" as="geometry"/>
        </mxCell>
        <mxCell id="5vce7p3ugAq2h6Zdt77l-2" value="supervisor 启动" style="rounded=1;whiteSpace=wrap;html=1;" parent="1" vertex="1">
          <mxGeometry x="800" y="179.5" width="120" height="40" as="geometry"/>
        </mxCell>
        <mxCell id="5vce7p3ugAq2h6Zdt77l-6" value="" style="edgeStyle=orthogonalEdgeStyle;rounded=0;orthogonalLoop=1;jettySize=auto;html=1;" parent="1" source="5vce7p3ugAq2h6Zdt77l-3" target="5vce7p3ugAq2h6Zdt77l-5" edge="1">
          <mxGeometry relative="1" as="geometry"/>
        </mxCell>
        <mxCell id="5vce7p3ugAq2h6Zdt77l-3" value="加载配置文件" style="rounded=0;whiteSpace=wrap;html=1;" parent="1" vertex="1">
          <mxGeometry x="800" y="260.5" width="120" height="40" as="geometry"/>
        </mxCell>
        <mxCell id="5vce7p3ugAq2h6Zdt77l-10" value="" style="edgeStyle=orthogonalEdgeStyle;rounded=0;orthogonalLoop=1;jettySize=auto;html=1;" parent="1" source="5vce7p3ugAq2h6Zdt77l-5" target="5vce7p3ugAq2h6Zdt77l-9" edge="1">
          <mxGeometry relative="1" as="geometry"/>
        </mxCell>
        <mxCell id="5vce7p3ugAq2h6Zdt77l-5" value="初始化supervisor&lt;br&gt;结构体对象" style="rounded=0;whiteSpace=wrap;html=1;" parent="1" vertex="1">
          <mxGeometry x="800" y="340.5" width="120" height="40" as="geometry"/>
        </mxCell>
        <mxCell id="5vce7p3ugAq2h6Zdt77l-13" value="" style="edgeStyle=orthogonalEdgeStyle;rounded=0;orthogonalLoop=1;jettySize=auto;html=1;entryX=1;entryY=0.5;entryDx=0;entryDy=0;" parent="1" source="5vce7p3ugAq2h6Zdt77l-9" target="5vce7p3ugAq2h6Zdt77l-14" edge="1">
          <mxGeometry relative="1" as="geometry">
            <mxPoint x="630" y="440" as="targetPoint"/>
          </mxGeometry>
        </mxCell>
        <mxCell id="5vce7p3ugAq2h6Zdt77l-16" value="" style="edgeStyle=orthogonalEdgeStyle;rounded=0;orthogonalLoop=1;jettySize=auto;html=1;" parent="1" source="5vce7p3ugAq2h6Zdt77l-9" target="5vce7p3ugAq2h6Zdt77l-15" edge="1">
          <mxGeometry relative="1" as="geometry"/>
        </mxCell>
        <mxCell id="5vce7p3ugAq2h6Zdt77l-9" value="开启notify监听处理信号的协程" style="rounded=0;whiteSpace=wrap;html=1;" parent="1" vertex="1">
          <mxGeometry x="800" y="420.5" width="120" height="40" as="geometry"/>
        </mxCell>
        <mxCell id="5vce7p3ugAq2h6Zdt77l-18" value="" style="edgeStyle=orthogonalEdgeStyle;rounded=0;orthogonalLoop=1;jettySize=auto;html=1;" parent="1" source="5vce7p3ugAq2h6Zdt77l-15" target="5vce7p3ugAq2h6Zdt77l-17" edge="1">
          <mxGeometry relative="1" as="geometry"/>
        </mxCell>
        <mxCell id="5vce7p3ugAq2h6Zdt77l-15" value="supervisor启动&lt;br&gt;各个子进程" style="rounded=0;whiteSpace=wrap;html=1;" parent="1" vertex="1">
          <mxGeometry x="800" y="500.5" width="120" height="40" as="geometry"/>
        </mxCell>
        <mxCell id="5vce7p3ugAq2h6Zdt77l-22" value="" style="edgeStyle=orthogonalEdgeStyle;rounded=0;orthogonalLoop=1;jettySize=auto;html=1;" parent="1" source="5vce7p3ugAq2h6Zdt77l-17" edge="1">
          <mxGeometry relative="1" as="geometry">
            <mxPoint x="1000" y="600.5" as="targetPoint"/>
          </mxGeometry>
        </mxCell>
        <mxCell id="5vce7p3ugAq2h6Zdt77l-82" value="" style="edgeStyle=orthogonalEdgeStyle;rounded=0;orthogonalLoop=1;jettySize=auto;html=1;" parent="1" source="5vce7p3ugAq2h6Zdt77l-17" target="5vce7p3ugAq2h6Zdt77l-81" edge="1">
          <mxGeometry relative="1" as="geometry"/>
        </mxCell>
        <mxCell id="5vce7p3ugAq2h6Zdt77l-17" value="对每个子进程开启&lt;br&gt;监听子进程的协程&lt;br&gt;（使用的是 wait）" style="rounded=0;whiteSpace=wrap;html=1;" parent="1" vertex="1">
          <mxGeometry x="800" y="580.5" width="120" height="40" as="geometry"/>
        </mxCell>
        <mxCell id="Qoc46-ygcvcK04rC4t04-5" value="" style="edgeStyle=orthogonalEdgeStyle;rounded=0;orthogonalLoop=1;jettySize=auto;html=1;" edge="1" parent="1" source="5vce7p3ugAq2h6Zdt77l-81" target="Qoc46-ygcvcK04rC4t04-4">
          <mxGeometry relative="1" as="geometry"/>
        </mxCell>
        <mxCell id="5vce7p3ugAq2h6Zdt77l-81" value="开启HTTP server" style="rounded=0;whiteSpace=wrap;html=1;" parent="1" vertex="1">
          <mxGeometry x="800" y="700.5" width="120" height="40" as="geometry"/>
        </mxCell>
        <mxCell id="Qoc46-ygcvcK04rC4t04-7" value="" style="edgeStyle=orthogonalEdgeStyle;rounded=0;orthogonalLoop=1;jettySize=auto;html=1;" edge="1" parent="1" source="Qoc46-ygcvcK04rC4t04-4">
          <mxGeometry relative="1" as="geometry">
            <mxPoint x="860" y="940.5" as="targetPoint"/>
          </mxGeometry>
        </mxCell>
        <mxCell id="Qoc46-ygcvcK04rC4t04-4" value="监听外部请求" style="rounded=0;whiteSpace=wrap;html=1;" vertex="1" parent="1">
          <mxGeometry x="800" y="820.5" width="120" height="40" as="geometry"/>
        </mxCell>
        <mxCell id="5vce7p3ugAq2h6Zdt77l-7" value="&lt;span style=&quot;white-space: normal&quot;&gt;加载配置文件&lt;/span&gt;&lt;br style=&quot;white-space: normal&quot;&gt;&lt;span style=&quot;white-space: normal&quot;&gt;包括自己的配置&lt;/span&gt;&lt;br style=&quot;white-space: normal&quot;&gt;&lt;span style=&quot;white-space: normal&quot;&gt;和子进程的配置&lt;/span&gt;" style="shape=document;whiteSpace=wrap;html=1;boundedLbl=1;" parent="1" vertex="1">
          <mxGeometry x="630" y="260.5" width="120" height="80" as="geometry"/>
        </mxCell>
        <mxCell id="5vce7p3ugAq2h6Zdt77l-8" value="&lt;span style=&quot;white-space: normal&quot;&gt;初始化supervisor&lt;/span&gt;&lt;br style=&quot;white-space: normal&quot;&gt;&lt;span style=&quot;white-space: normal&quot;&gt;结构体，将自己的&lt;/span&gt;&lt;br style=&quot;white-space: normal&quot;&gt;&lt;span style=&quot;white-space: normal&quot;&gt;配置与子进程配置&lt;/span&gt;&lt;br style=&quot;white-space: normal&quot;&gt;&lt;span style=&quot;white-space: normal&quot;&gt;加载进结构图对象&lt;/span&gt;" style="shape=document;whiteSpace=wrap;html=1;boundedLbl=1;" parent="1" vertex="1">
          <mxGeometry x="980" y="340.5" width="120" height="80" as="geometry"/>
        </mxCell>
        <mxCell id="5vce7p3ugAq2h6Zdt77l-11" value="创建os.Signal的channel，用于&lt;br&gt;监听系统SIG，&lt;br&gt;并根据这个SIG&lt;br&gt;的类型进行相应&lt;br&gt;处理，SIGCHLD&lt;br&gt;信号用于处理&lt;br&gt;僵尸进程的收割，&lt;br&gt;其他信号，比如&lt;br&gt;SIGKILL，用于&lt;br&gt;杀死当前进程&lt;br&gt;并且关闭子进程&lt;br&gt;（如果有的话）" style="shape=document;whiteSpace=wrap;html=1;boundedLbl=1;" parent="1" vertex="1">
          <mxGeometry x="380" y="260" width="120" height="300" as="geometry"/>
        </mxCell>
        <mxCell id="5vce7p3ugAq2h6Zdt77l-49" value="" style="edgeStyle=orthogonalEdgeStyle;rounded=0;orthogonalLoop=1;jettySize=auto;html=1;" parent="1" source="5vce7p3ugAq2h6Zdt77l-14" edge="1">
          <mxGeometry relative="1" as="geometry">
            <mxPoint x="610" y="500" as="targetPoint"/>
          </mxGeometry>
        </mxCell>
        <mxCell id="5vce7p3ugAq2h6Zdt77l-14" value="协程1" style="rounded=1;whiteSpace=wrap;html=1;" parent="1" vertex="1">
          <mxGeometry x="550" y="420" width="120" height="40" as="geometry"/>
        </mxCell>
        <mxCell id="5vce7p3ugAq2h6Zdt77l-23" value="协程n" style="rounded=1;whiteSpace=wrap;html=1;" parent="1" vertex="1">
          <mxGeometry x="1000" y="580.5" width="120" height="40" as="geometry"/>
        </mxCell>
        <mxCell id="5vce7p3ugAq2h6Zdt77l-28" value="" style="edgeStyle=orthogonalEdgeStyle;rounded=0;orthogonalLoop=1;jettySize=auto;html=1;" parent="1" edge="1">
          <mxGeometry relative="1" as="geometry">
            <mxPoint x="1060" y="620.5" as="sourcePoint"/>
            <mxPoint x="1060" y="680.5" as="targetPoint"/>
          </mxGeometry>
        </mxCell>
        <mxCell id="5vce7p3ugAq2h6Zdt77l-77" value="" style="edgeStyle=orthogonalEdgeStyle;rounded=0;orthogonalLoop=1;jettySize=auto;html=1;" parent="1" source="5vce7p3ugAq2h6Zdt77l-26" edge="1">
          <mxGeometry relative="1" as="geometry">
            <mxPoint x="1060" y="940" as="targetPoint"/>
          </mxGeometry>
        </mxCell>
        <mxCell id="5vce7p3ugAq2h6Zdt77l-26" value="释放这个子进程在系统内的资源" style="rounded=0;whiteSpace=wrap;html=1;" parent="1" vertex="1">
          <mxGeometry x="1000" y="849.5" width="120" height="40" as="geometry"/>
        </mxCell>
        <mxCell id="5vce7p3ugAq2h6Zdt77l-30" value="" style="edgeStyle=orthogonalEdgeStyle;rounded=0;orthogonalLoop=1;jettySize=auto;html=1;" parent="1" source="5vce7p3ugAq2h6Zdt77l-27" edge="1">
          <mxGeometry relative="1" as="geometry">
            <mxPoint x="1060" y="1020" as="targetPoint"/>
          </mxGeometry>
        </mxCell>
        <mxCell id="5vce7p3ugAq2h6Zdt77l-27" value="处理这个子进程在supervisor内的结构体的数据" style="rounded=0;whiteSpace=wrap;html=1;" parent="1" vertex="1">
          <mxGeometry x="1000" y="940" width="120" height="40" as="geometry"/>
        </mxCell>
        <mxCell id="5vce7p3ugAq2h6Zdt77l-33" value="" style="edgeStyle=orthogonalEdgeStyle;rounded=0;orthogonalLoop=1;jettySize=auto;html=1;" parent="1" source="5vce7p3ugAq2h6Zdt77l-31" edge="1">
          <mxGeometry relative="1" as="geometry">
            <mxPoint x="1060" y="1100" as="targetPoint"/>
          </mxGeometry>
        </mxCell>
        <mxCell id="5vce7p3ugAq2h6Zdt77l-36" value="是" style="text;html=1;align=center;verticalAlign=middle;resizable=0;points=[];labelBackgroundColor=#ffffff;" parent="5vce7p3ugAq2h6Zdt77l-33" vertex="1" connectable="0">
          <mxGeometry x="-0.35" y="1" relative="1" as="geometry">
            <mxPoint as="offset"/>
          </mxGeometry>
        </mxCell>
        <mxCell id="5vce7p3ugAq2h6Zdt77l-38" value="" style="edgeStyle=orthogonalEdgeStyle;rounded=0;orthogonalLoop=1;jettySize=auto;html=1;" parent="1" source="5vce7p3ugAq2h6Zdt77l-31" edge="1">
          <mxGeometry relative="1" as="geometry">
            <mxPoint x="1200" y="1040" as="targetPoint"/>
          </mxGeometry>
        </mxCell>
        <mxCell id="5vce7p3ugAq2h6Zdt77l-39" value="否" style="text;html=1;align=center;verticalAlign=middle;resizable=0;points=[];labelBackgroundColor=#ffffff;" parent="5vce7p3ugAq2h6Zdt77l-38" vertex="1" connectable="0">
          <mxGeometry x="-0.225" y="2" relative="1" as="geometry">
            <mxPoint as="offset"/>
          </mxGeometry>
        </mxCell>
        <mxCell id="5vce7p3ugAq2h6Zdt77l-31" value="是否主动重启" style="rhombus;whiteSpace=wrap;html=1;" parent="1" vertex="1">
          <mxGeometry x="1000" y="1020" width="120" height="40" as="geometry"/>
        </mxCell>
        <mxCell id="5vce7p3ugAq2h6Zdt77l-34" value="调用子进程在supervisor内的结构体的 spawn 方法新建&lt;br&gt;子进程" style="rounded=0;whiteSpace=wrap;html=1;" parent="1" vertex="1">
          <mxGeometry x="1000" y="1180" width="120" height="60" as="geometry"/>
        </mxCell>
        <mxCell id="5vce7p3ugAq2h6Zdt77l-40" value="这个子进程结构体&lt;br&gt;状态变为Stop" style="rounded=0;whiteSpace=wrap;html=1;" parent="1" vertex="1">
          <mxGeometry x="1200" y="1020" width="120" height="40" as="geometry"/>
        </mxCell>
        <mxCell id="5vce7p3ugAq2h6Zdt77l-42" value="" style="edgeStyle=orthogonalEdgeStyle;rounded=0;orthogonalLoop=1;jettySize=auto;html=1;" parent="1" source="5vce7p3ugAq2h6Zdt77l-41" target="5vce7p3ugAq2h6Zdt77l-34" edge="1">
          <mxGeometry relative="1" as="geometry"/>
        </mxCell>
        <mxCell id="5vce7p3ugAq2h6Zdt77l-43" value="否" style="text;html=1;align=center;verticalAlign=middle;resizable=0;points=[];labelBackgroundColor=#ffffff;" parent="5vce7p3ugAq2h6Zdt77l-42" vertex="1" connectable="0">
          <mxGeometry x="-0.1" y="-1" relative="1" as="geometry">
            <mxPoint as="offset"/>
          </mxGeometry>
        </mxCell>
        <mxCell id="5vce7p3ugAq2h6Zdt77l-45" value="" style="edgeStyle=orthogonalEdgeStyle;rounded=0;orthogonalLoop=1;jettySize=auto;html=1;" parent="1" source="5vce7p3ugAq2h6Zdt77l-41" edge="1">
          <mxGeometry relative="1" as="geometry">
            <mxPoint x="1200" y="1120" as="targetPoint"/>
          </mxGeometry>
        </mxCell>
        <mxCell id="5vce7p3ugAq2h6Zdt77l-46" value="是" style="text;html=1;align=center;verticalAlign=middle;resizable=0;points=[];labelBackgroundColor=#ffffff;" parent="5vce7p3ugAq2h6Zdt77l-45" vertex="1" connectable="0">
          <mxGeometry y="-1" relative="1" as="geometry">
            <mxPoint as="offset"/>
          </mxGeometry>
        </mxCell>
        <mxCell id="5vce7p3ugAq2h6Zdt77l-41" value="是否超过了允许启动的次数" style="rhombus;whiteSpace=wrap;html=1;" parent="1" vertex="1">
          <mxGeometry x="1000" y="1100" width="120" height="40" as="geometry"/>
        </mxCell>
        <mxCell id="5vce7p3ugAq2h6Zdt77l-47" value="这个子进程对应结构体的状态变为FATAL" style="rounded=0;whiteSpace=wrap;html=1;" parent="1" vertex="1">
          <mxGeometry x="1200" y="1100" width="120" height="40" as="geometry"/>
        </mxCell>
        <mxCell id="5vce7p3ugAq2h6Zdt77l-52" value="" style="edgeStyle=orthogonalEdgeStyle;rounded=0;orthogonalLoop=1;jettySize=auto;html=1;" parent="1" source="5vce7p3ugAq2h6Zdt77l-50" target="5vce7p3ugAq2h6Zdt77l-51" edge="1">
          <mxGeometry relative="1" as="geometry"/>
        </mxCell>
        <mxCell id="5vce7p3ugAq2h6Zdt77l-50" value="接收针对这个进程的信号（是个loop）" style="rounded=0;whiteSpace=wrap;html=1;" parent="1" vertex="1">
          <mxGeometry x="550" y="500" width="120" height="40" as="geometry"/>
        </mxCell>
        <mxCell id="5vce7p3ugAq2h6Zdt77l-54" value="" style="edgeStyle=orthogonalEdgeStyle;rounded=0;orthogonalLoop=1;jettySize=auto;html=1;" parent="1" source="5vce7p3ugAq2h6Zdt77l-51" edge="1">
          <mxGeometry relative="1" as="geometry">
            <mxPoint x="610" y="700" as="targetPoint"/>
          </mxGeometry>
        </mxCell>
        <mxCell id="5vce7p3ugAq2h6Zdt77l-55" value="是" style="text;html=1;align=center;verticalAlign=middle;resizable=0;points=[];labelBackgroundColor=#ffffff;" parent="5vce7p3ugAq2h6Zdt77l-54" vertex="1" connectable="0">
          <mxGeometry x="-0.1" relative="1" as="geometry">
            <mxPoint as="offset"/>
          </mxGeometry>
        </mxCell>
        <mxCell id="5vce7p3ugAq2h6Zdt77l-58" value="" style="edgeStyle=orthogonalEdgeStyle;rounded=0;orthogonalLoop=1;jettySize=auto;html=1;entryX=1;entryY=0.5;entryDx=0;entryDy=0;" parent="1" source="5vce7p3ugAq2h6Zdt77l-51" target="5vce7p3ugAq2h6Zdt77l-59" edge="1">
          <mxGeometry relative="1" as="geometry">
            <mxPoint x="520" y="600" as="targetPoint"/>
          </mxGeometry>
        </mxCell>
        <mxCell id="5vce7p3ugAq2h6Zdt77l-68" value="否" style="text;html=1;align=center;verticalAlign=middle;resizable=0;points=[];labelBackgroundColor=#ffffff;" parent="5vce7p3ugAq2h6Zdt77l-58" vertex="1" connectable="0">
          <mxGeometry x="0.24" y="1" relative="1" as="geometry">
            <mxPoint x="11.43" y="-0.5" as="offset"/>
          </mxGeometry>
        </mxCell>
        <mxCell id="5vce7p3ugAq2h6Zdt77l-51" value="信号是否为SIGCHLD" style="rhombus;whiteSpace=wrap;html=1;" parent="1" vertex="1">
          <mxGeometry x="550" y="580" width="120" height="40" as="geometry"/>
        </mxCell>
        <mxCell id="5vce7p3ugAq2h6Zdt77l-67" value="" style="edgeStyle=orthogonalEdgeStyle;rounded=0;orthogonalLoop=1;jettySize=auto;html=1;entryX=1;entryY=0.25;entryDx=0;entryDy=0;" parent="1" source="5vce7p3ugAq2h6Zdt77l-56" target="5vce7p3ugAq2h6Zdt77l-50" edge="1">
          <mxGeometry relative="1" as="geometry">
            <mxPoint x="750" y="720" as="targetPoint"/>
            <Array as="points">
              <mxPoint x="730" y="720"/>
              <mxPoint x="730" y="510"/>
            </Array>
          </mxGeometry>
        </mxCell>
        <mxCell id="5vce7p3ugAq2h6Zdt77l-56" value="执行僵尸进程收割处理函数" style="rounded=0;whiteSpace=wrap;html=1;" parent="1" vertex="1">
          <mxGeometry x="550" y="700" width="120" height="40" as="geometry"/>
        </mxCell>
        <mxCell id="5vce7p3ugAq2h6Zdt77l-61" value="" style="edgeStyle=orthogonalEdgeStyle;rounded=0;orthogonalLoop=1;jettySize=auto;html=1;" parent="1" source="5vce7p3ugAq2h6Zdt77l-59" target="5vce7p3ugAq2h6Zdt77l-60" edge="1">
          <mxGeometry relative="1" as="geometry"/>
        </mxCell>
        <mxCell id="5vce7p3ugAq2h6Zdt77l-59" value="退出所有的子进程" style="rounded=0;whiteSpace=wrap;html=1;" parent="1" vertex="1">
          <mxGeometry x="380" y="580" width="120" height="40" as="geometry"/>
        </mxCell>
        <mxCell id="5vce7p3ugAq2h6Zdt77l-64" value="" style="edgeStyle=orthogonalEdgeStyle;rounded=0;orthogonalLoop=1;jettySize=auto;html=1;" parent="1" source="5vce7p3ugAq2h6Zdt77l-60" edge="1">
          <mxGeometry relative="1" as="geometry">
            <mxPoint x="439.9999999999998" y="820" as="targetPoint"/>
          </mxGeometry>
        </mxCell>
        <mxCell id="5vce7p3ugAq2h6Zdt77l-60" value="执行os.Exit()&lt;br&gt;退出supervisor主进程" style="rounded=0;whiteSpace=wrap;html=1;" parent="1" vertex="1">
          <mxGeometry x="380" y="700" width="120" height="40" as="geometry"/>
        </mxCell>
        <mxCell id="5vce7p3ugAq2h6Zdt77l-62" value="根据supervisor&lt;br&gt;结构体内记录的&lt;br&gt;所有的子进程的&lt;br&gt;参数，对每个&lt;br&gt;子进程进行stop&lt;br&gt;操作，杀死所有&lt;br&gt;supervisor内的&lt;br&gt;子进程" style="shape=document;whiteSpace=wrap;html=1;boundedLbl=1;" parent="1" vertex="1">
          <mxGeometry x="200" y="580.5" width="120" height="170" as="geometry"/>
        </mxCell>
        <mxCell id="5vce7p3ugAq2h6Zdt77l-65" value="结束" style="rounded=1;whiteSpace=wrap;html=1;" parent="1" vertex="1">
          <mxGeometry x="380" y="820" width="120" height="40" as="geometry"/>
        </mxCell>
        <mxCell id="5vce7p3ugAq2h6Zdt77l-70" value="" style="edgeStyle=orthogonalEdgeStyle;rounded=0;orthogonalLoop=1;jettySize=auto;html=1;" parent="1" source="5vce7p3ugAq2h6Zdt77l-69" edge="1">
          <mxGeometry relative="1" as="geometry">
            <mxPoint x="1060" y="849.5" as="targetPoint"/>
          </mxGeometry>
        </mxCell>
        <mxCell id="5vce7p3ugAq2h6Zdt77l-71" value="是" style="text;html=1;align=center;verticalAlign=middle;resizable=0;points=[];labelBackgroundColor=#ffffff;" parent="5vce7p3ugAq2h6Zdt77l-70" vertex="1" connectable="0">
          <mxGeometry x="-0.0952" relative="1" as="geometry">
            <mxPoint as="offset"/>
          </mxGeometry>
        </mxCell>
        <mxCell id="5vce7p3ugAq2h6Zdt77l-73" value="" style="edgeStyle=orthogonalEdgeStyle;rounded=0;orthogonalLoop=1;jettySize=auto;html=1;entryX=1;entryY=0.5;entryDx=0;entryDy=0;" parent="1" source="5vce7p3ugAq2h6Zdt77l-69" target="5vce7p3ugAq2h6Zdt77l-78" edge="1">
          <mxGeometry relative="1" as="geometry">
            <mxPoint x="1170" y="730" as="targetPoint"/>
            <Array as="points">
              <mxPoint x="1170" y="790"/>
              <mxPoint x="1170" y="700"/>
            </Array>
          </mxGeometry>
        </mxCell>
        <mxCell id="5vce7p3ugAq2h6Zdt77l-74" value="否" style="text;html=1;align=center;verticalAlign=middle;resizable=0;points=[];labelBackgroundColor=#ffffff;" parent="5vce7p3ugAq2h6Zdt77l-73" vertex="1" connectable="0">
          <mxGeometry x="-0.3107" y="3" relative="1" as="geometry">
            <mxPoint y="-24.71" as="offset"/>
          </mxGeometry>
        </mxCell>
        <mxCell id="5vce7p3ugAq2h6Zdt77l-69" value="wait 是否监听到&lt;br&gt;子进程退出" style="rhombus;whiteSpace=wrap;html=1;" parent="1" vertex="1">
          <mxGeometry x="1000" y="770" width="120" height="40" as="geometry"/>
        </mxCell>
        <mxCell id="5vce7p3ugAq2h6Zdt77l-79" value="" style="edgeStyle=orthogonalEdgeStyle;rounded=0;orthogonalLoop=1;jettySize=auto;html=1;" parent="1" source="5vce7p3ugAq2h6Zdt77l-78" target="5vce7p3ugAq2h6Zdt77l-69" edge="1">
          <mxGeometry relative="1" as="geometry"/>
        </mxCell>
        <mxCell id="5vce7p3ugAq2h6Zdt77l-78" value="监听子进程状态" style="rounded=0;whiteSpace=wrap;html=1;" parent="1" vertex="1">
          <mxGeometry x="1000" y="680" width="120" height="40" as="geometry"/>
        </mxCell>
        <mxCell id="5vce7p3ugAq2h6Zdt77l-80" value="每一个子进程启动之后，都会开启一个协程来监听这个子进程的状态，一旦这个进程停止了，根据退出时主动还是被动来执行相应的处理" style="shape=document;whiteSpace=wrap;html=1;boundedLbl=1;" parent="1" vertex="1">
          <mxGeometry x="1210" y="470" width="120" height="160" as="geometry"/>
        </mxCell>
        <mxCell id="5vce7p3ugAq2h6Zdt77l-83" value="开启一个HTTP&lt;br&gt;server，很大的一个作用是提供服务，防止main协程执行完就退出了，因为server是一个监听loop，所以会让main程生存。" style="shape=document;whiteSpace=wrap;html=1;boundedLbl=1;" parent="1" vertex="1">
          <mxGeometry x="550" y="830" width="120" height="150" as="geometry"/>
        </mxCell>
        <mxCell id="Qoc46-ygcvcK04rC4t04-10" value="" style="edgeStyle=orthogonalEdgeStyle;rounded=0;orthogonalLoop=1;jettySize=auto;html=1;" edge="1" parent="1" source="Qoc46-ygcvcK04rC4t04-8">
          <mxGeometry relative="1" as="geometry">
            <mxPoint x="860" y="1060" as="targetPoint"/>
          </mxGeometry>
        </mxCell>
        <mxCell id="Qoc46-ygcvcK04rC4t04-11" value="是" style="text;html=1;align=center;verticalAlign=middle;resizable=0;points=[];labelBackgroundColor=#ffffff;" vertex="1" connectable="0" parent="Qoc46-ygcvcK04rC4t04-10">
          <mxGeometry x="-0.2574" y="1" relative="1" as="geometry">
            <mxPoint as="offset"/>
          </mxGeometry>
        </mxCell>
        <mxCell id="Qoc46-ygcvcK04rC4t04-14" value="" style="edgeStyle=orthogonalEdgeStyle;rounded=0;orthogonalLoop=1;jettySize=auto;html=1;entryX=0;entryY=0.5;entryDx=0;entryDy=0;" edge="1" parent="1" source="Qoc46-ygcvcK04rC4t04-8" target="Qoc46-ygcvcK04rC4t04-4">
          <mxGeometry relative="1" as="geometry">
            <mxPoint x="720" y="960" as="targetPoint"/>
            <Array as="points">
              <mxPoint x="760" y="960"/>
              <mxPoint x="760" y="840"/>
            </Array>
          </mxGeometry>
        </mxCell>
        <mxCell id="Qoc46-ygcvcK04rC4t04-15" value="否" style="text;html=1;align=center;verticalAlign=middle;resizable=0;points=[];labelBackgroundColor=#ffffff;" vertex="1" connectable="0" parent="Qoc46-ygcvcK04rC4t04-14">
          <mxGeometry x="-0.2044" y="-2" relative="1" as="geometry">
            <mxPoint y="-16.24" as="offset"/>
          </mxGeometry>
        </mxCell>
        <mxCell id="Qoc46-ygcvcK04rC4t04-8" value="是否有web请求" style="rhombus;whiteSpace=wrap;html=1;" vertex="1" parent="1">
          <mxGeometry x="800" y="940" width="120" height="40" as="geometry"/>
        </mxCell>
        <mxCell id="Qoc46-ygcvcK04rC4t04-19" value="" style="edgeStyle=orthogonalEdgeStyle;rounded=0;orthogonalLoop=1;jettySize=auto;html=1;entryX=1;entryY=0.5;entryDx=0;entryDy=0;" edge="1" parent="1" source="Qoc46-ygcvcK04rC4t04-12" target="Qoc46-ygcvcK04rC4t04-4">
          <mxGeometry relative="1" as="geometry">
            <mxPoint x="1000" y="1080" as="targetPoint"/>
            <Array as="points">
              <mxPoint x="960" y="1080"/>
              <mxPoint x="960" y="840"/>
            </Array>
          </mxGeometry>
        </mxCell>
        <mxCell id="Qoc46-ygcvcK04rC4t04-12" value="执行对应的handler" style="rounded=0;whiteSpace=wrap;html=1;" vertex="1" parent="1">
          <mxGeometry x="800" y="1060" width="120" height="40" as="geometry"/>
        </mxCell>
      </root>
    </mxGraphModel>
  </diagram>
</mxfile>
